<svg
      xmlns="http://www.w3.org/2000/svg"
      width="51"
      height="59"
      fill="none"
      viewBox="0 0 51 59"
    >
      <path
        fill="#31D0AA"
        d="M50.872 8.875v5.182c0 4.558-11.373 8.285-25.375 8.285S.122 18.615.122 14.06V8.875C.122 4.316 11.495.592 25.497.592s25.375 3.724 25.375 8.283zm0 11.654v11.657c0 4.554-11.373 8.28-25.375 8.28S.122 36.74.122 32.187V20.529c5.451 3.752 15.429 5.508 25.375 5.508s19.926-1.758 25.375-5.508zm0 18.125v11.657c0 4.554-11.373 8.28-25.375 8.28S.122 54.868.122 50.308V38.654c5.451 3.753 15.429 5.51 25.375 5.51s19.926-1.76 25.375-5.51z"
      ></path>
    </svg>