<svg
      xmlns="http://www.w3.org/2000/svg"
      width="31"
      height="46"
      fill="none"
      viewBox="0 0 31 46"
    >
      <path
        fill="#09002A"
        d="M.837 42.375c-.14.384-.189.796-.143 1.202.245 2.178 2.877 3.135 4.465 1.625.297-.282.525-.63.665-1.015l6.39-17.53c.419-1.15-.287-2.403-1.38-2.954-1.333-.67-3.128-.235-3.637 1.166L.837 42.375zM24.136 24.87c-.51-1.403-2.32-1.834-3.654-1.165-1.094.548-1.787 1.8-1.368 2.95l6.39 17.53c.14.386.37.736.668 1.02 1.591 1.512 4.23.563 4.485-1.617.049-.413 0-.832-.143-1.223L24.136 24.87zM23.664 14.213c0-2.72-1.38-5.113-3.468-6.558-1.039-.718-1.865-1.804-1.865-3.067V3.546a2.667 2.667 0 00-5.333 0v1.042c0 1.263-.827 2.349-1.865 3.067-2.09 1.445-3.469 3.837-3.469 6.558 0 4.426 3.574 8 8 8 4.427 0 8-3.574 8-8zm-8 2.666a2.674 2.674 0 01-2.666-2.666c0-1.467 1.2-2.667 2.666-2.667 1.467 0 2.667 1.2 2.667 2.667 0 1.466-1.2 2.666-2.667 2.666z"
      ></path>
    </svg>