 <svg
      xmlns="http://www.w3.org/2000/svg"
      width="32"
      height="32"
      fill="none"
      viewBox="0 0 32 32"
    >
      <path
        fill="#09002A"
        d="M29.283.354H2.537C1.257.354.22 1.368.22 2.617v27.059c0 1.248 1.038 2.262 2.318 2.262h26.746c1.282 0 2.32-1.014 2.32-2.262V2.616c0-1.249-1.038-2.262-2.32-2.262zM9.732 26.794h-4.74V12.532h4.74v14.262zm-2.37-16.21H7.33c-1.59 0-2.619-1.095-2.619-2.464 0-1.399 1.06-2.464 2.682-2.464 1.622 0 2.62 1.065 2.651 2.464 0 1.369-1.03 2.464-2.682 2.464zm19.463 16.21h-4.74v-7.632c0-1.916-.686-3.224-2.401-3.224-1.31 0-2.09.882-2.433 1.734-.125.304-.155.73-.155 1.156v7.965h-4.74s.062-12.925 0-14.261h4.74v2.018c.63-.971 1.756-2.355 4.273-2.355 3.118 0 5.457 2.039 5.457 6.42v8.179z"
      ></path>
    </svg>