 <svg
      xmlns="http://www.w3.org/2000/svg"
      width="86"
      height="59"
      fill="none"
      viewBox="0 0 86 59"
    >
      <path
        fill="#F4C751"
        d="M24.962 54.431c-.109 1.578-.952 2.665-2.529 3.264-1.523.598-4.296.897-8.32.897-4.025 0-7.397-.354-10.116-1.06C1.332 56.77 0 55.817 0 54.675c0-1.305 2.42-9.626 7.26-24.962 4.84-15.39 7.614-24.255 8.32-26.593.273-.707 2.448-1.278 6.527-1.713C26.24.918 30.645.673 35.322.673c4.731 0 7.342.816 7.831 2.448 10.279 34.153 15.418 51.5 15.418 52.045 0 .544-.326 1.087-.979 1.631-1.523 1.197-4.54 1.795-9.055 1.795-9.626 0-14.547-1.142-14.765-3.426l-.57-5.303H25.37l-.408 4.569zm6.526-20.067L30.264 19.68H28.47l-1.387 14.684h4.405zM85.432 56.634c0 .598-1.659 1.088-4.976 1.468-3.317.327-6.662.49-10.034.49-3.317 0-5.438-.136-6.362-.408-.925-.326-1.387-.843-1.387-1.55V5.894c0-1.196 1.577-2.365 4.731-3.508C70.558 1.19 74.094.592 78.01.592c3.48 0 5.764.734 6.852 2.202.38.544.571 1.088.571 1.632v52.208z"
      ></path>
    </svg>