<svg
        xmlns="http://www.w3.org/2000/svg"
        width="54"
        height="55"
        fill="none"
        viewBox="0 0 54 55"
      >
        <path
          fill="#ED4B9E"
          fillRule="evenodd"
          d="M.539 3.261A2.417 2.417 0 012.955.844h16.917a2.417 2.417 0 012.417 2.417v14.5h9.666v-14.5A2.417 2.417 0 0134.372.844H51.29a2.417 2.417 0 012.416 2.417v16.917a2.417 2.417 0 01-2.416 2.416h-14.5v9.667h14.5a2.417 2.417 0 012.416 2.417v16.916a2.417 2.417 0 01-2.416 2.417H34.372a2.417 2.417 0 01-2.417-2.417v-14.5H22.29v14.5a2.417 2.417 0 01-2.417 2.417H2.955A2.417 2.417 0 01.54 51.594V34.678a2.417 2.417 0 012.416-2.417h14.5v-9.667h-14.5A2.417 2.417 0 01.54 20.178V3.26z"
          clipRule="evenodd"
        ></path>
      </svg>