<svg
      xmlns="http://www.w3.org/2000/svg"
      width="36"
      height="37"
      fill="none"
      viewBox="0 0 36 37"
    >
      <path
        fill="#09002A"
        fillRule="evenodd"
        d="M31.602.39A4.4 4.4 0 0136 4.79v27.203a4.4 4.4 0 01-4.398 4.399H4.398A4.4 4.4 0 010 31.992V4.79A4.4 4.4 0 014.398.391h27.204zM18 6.087c-3.342 0-3.76.014-5.073.074-1.31.06-2.204.268-2.987.572a6.032 6.032 0 00-2.18 1.42 6.032 6.032 0 00-1.419 2.179c-.304.782-.512 1.677-.572 2.986-.06 1.313-.074 1.732-.074 5.074 0 3.341.014 3.76.074 5.073.06 1.31.268 2.204.572 2.987.315.809.735 1.495 1.42 2.18a6.032 6.032 0 002.179 1.418c.783.305 1.677.512 2.987.572 1.312.06 1.731.074 5.073.074 3.342 0 3.76-.014 5.073-.074 1.31-.06 2.204-.267 2.987-.572a6.033 6.033 0 002.18-1.419 6.032 6.032 0 001.419-2.18c.304-.782.512-1.677.572-2.986.06-1.313.074-1.732.074-5.073 0-3.342-.014-3.761-.074-5.074-.06-1.31-.268-2.204-.572-2.986a6.032 6.032 0 00-1.42-2.18 6.033 6.033 0 00-2.179-1.419c-.783-.304-1.677-.512-2.987-.572-1.312-.06-1.731-.074-5.073-.074zm0 2.217c3.285 0 3.675.013 4.972.072 1.2.055 1.851.255 2.285.423.574.224.984.49 1.415.92.43.431.697.841.92 1.416.169.433.37 1.085.424 2.284.06 1.298.072 1.687.072 4.973 0 3.285-.013 3.674-.072 4.972-.055 1.2-.255 1.851-.424 2.285-.223.574-.49.984-.92 1.414-.43.431-.84.698-1.415.92-.434.17-1.085.37-2.285.425-1.297.059-1.686.071-4.972.071-3.286 0-3.675-.012-4.972-.072-1.2-.054-1.851-.255-2.285-.423a3.814 3.814 0 01-1.415-.92c-.43-.431-.697-.841-.92-1.415-.169-.434-.37-1.086-.424-2.285-.06-1.298-.072-1.687-.072-4.972 0-3.286.013-3.675.072-4.972.055-1.2.255-1.852.424-2.285.223-.575.49-.985.92-1.415.43-.43.84-.697 1.415-.92.434-.169 1.085-.37 2.285-.424 1.297-.06 1.686-.072 4.972-.072zm0 3.769a6.319 6.319 0 100 12.637 6.319 6.319 0 000-12.637zm0 10.42a4.101 4.101 0 110-8.203 4.101 4.101 0 010 8.203zm8.045-10.67a1.477 1.477 0 11-2.953 0 1.477 1.477 0 012.953 0z"
        clipRule="evenodd"
      ></path>
    </svg>