 <svg
          xmlns="http://www.w3.org/2000/svg"
          width="49"
          height="47"
          fill="none"
          viewBox="0 0 49 47"
        >
          <path
            fill="#09002A"
            d="M44.282 39.217c-.993-.99-1.119-2.523-.658-3.846a10.02 10.02 0 00.56-3.31A10.272 10.272 0 0033.9 21.777a10.272 10.272 0 00-10.286 10.286c0 5.691 4.594 10.285 10.263 10.285 1.155 0 2.265-.196 3.3-.553 1.33-.46 2.871-.338 3.866.657l3.807 3.806a2.293 2.293 0 103.24-3.245l-3.807-3.795zm-10.383-1.44a5.716 5.716 0 01-5.715-5.715 5.716 5.716 0 015.715-5.714 5.716 5.716 0 015.714 5.714 5.716 5.716 0 01-5.714 5.714zm-2.704-22.25c.818 1.226-.044 2.931-1.461 3.338-.245.07-.486.148-.725.231a1 1 0 01-1.167-.374.952.952 0 00-1.604.027l-5.747 9.346a3 3 0 01-4.836.378l-1.544-1.806a3 3 0 00-4.825.36L4.45 34.77a2.288 2.288 0 11-3.881-2.425l8.126-13.003a3 3 0 014.822-.363l1.523 1.777a3 3 0 004.833-.38l4.533-7.367c1.146-1.863 3.837-1.912 5.05-.091l1.74 2.608zm8.67 2.592c-.5.79-1.483 1.086-2.377.814-1.38-.42-2.228-2.064-1.456-3.284L44.71 1.94a2.285 2.285 0 113.86 2.445L39.865 18.12z"
          ></path>
        </svg>