 <svg
      xmlns="http://www.w3.org/2000/svg"
      width="25"
      height="26"
      fill="none"
      viewBox="0 0 25 26"
    >
      <path
        fill="#6563FF"
        d="M24.35 10.94l-.57 1.41c-.18.48-.18.99 0 1.47l.57 1.41c.33.84.06 1.8-.69 2.34l-1.26.87c-.42.3-.69.75-.81 1.23l-.27 1.5c-.18.9-.93 1.56-1.83 1.59l-1.53.06c-.51.03-.99.24-1.35.6l-1.05 1.11c-.63.66-1.62.81-2.4.36l-1.32-.78c-.45-.27-.96-.33-1.47-.21l-1.5.36c-.87.21-1.8-.21-2.22-1.02l-.69-1.38c-.24-.45-.63-.81-1.11-.96l-1.44-.48a1.95 1.95 0 01-1.32-2.04l.15-1.53c.06-.51-.09-1.02-.42-1.41l-.96-1.2a1.94 1.94 0 010-2.43l.96-1.2c.33-.39.48-.9.42-1.41l-.15-1.53c-.09-.9.45-1.74 1.32-2.04l1.44-.48c.48-.15.87-.51 1.11-.96l.69-1.38C7.07 2 7.97 1.58 8.87 1.79l1.5.36c.48.12 1.02.06 1.47-.21l1.32-.78c.78-.45 1.77-.33 2.4.36l1.05 1.11c.36.36.84.6 1.35.6l1.53.06c.9.03 1.68.69 1.83 1.59l.27 1.5c.09.51.39.96.81 1.23l1.26.87c.75.66 1.05 1.62.69 2.46z"
      ></path>
      <path
        fill="#FAFCFE"
        d="M10.55 17.69c-.42 0-.84-.18-1.14-.51l-3.75-4.29c-.54-.63-.48-1.56.12-2.13.63-.54 1.56-.48 2.13.12l2.82 3.21 6.57-5.28c.63-.51 1.59-.42 2.1.24.51.66.42 1.59-.24 2.1l-7.68 6.21c-.27.21-.6.33-.93.33z"
      ></path>
    </svg>