 <svg
      xmlns="http://www.w3.org/2000/svg"
      width="32"
      height="27"
      fill="none"
      viewBox="0 0 32 27"
    >
      <path
        fill="#09002A"
        d="M31.551 3.957a12.77 12.77 0 01-3.686 1.01 6.43 6.43 0 002.822-3.55 12.847 12.847 0 01-4.075 1.558 6.418 6.418 0 00-10.935 5.853 18.222 18.222 0 01-13.23-6.706A6.385 6.385 0 001.58 5.35a6.414 6.414 0 002.855 5.342 6.4 6.4 0 01-2.907-.803v.081a6.423 6.423 0 005.148 6.293 6.45 6.45 0 01-2.9.11 6.425 6.425 0 005.996 4.456 12.875 12.875 0 01-7.97 2.748c-.518 0-1.03-.03-1.532-.09a18.161 18.161 0 009.838 2.883c11.806 0 18.26-9.779 18.26-18.26 0-.278-.005-.555-.017-.831a13 13 0 003.201-3.321z"
      ></path>
    </svg>