 <svg
      xmlns="http://www.w3.org/2000/svg"
      width="58"
      height="45"
      fill="none"
      viewBox="0 0 58 45"
    >
      <path
        fill="#4B4DED"
        d="M15.01 8.771a3.633 3.633 0 00-5.104.46L.844 20.105a3.616 3.616 0 000 4.645l9.062 10.874a3.624 3.624 0 105.565-4.644l-7.13-8.552 7.13-8.553a3.625 3.625 0 00-.46-5.104zM33.333.75a3.659 3.659 0 00-4.262 2.846l-7.25 36.248a3.616 3.616 0 002.846 4.261 3.622 3.622 0 004.262-2.846l7.25-36.247A3.616 3.616 0 0033.333.75zM57.156 20.105L48.094 9.231a3.623 3.623 0 10-5.565 4.644l7.13 8.553-7.13 8.552a3.625 3.625 0 105.565 4.644l9.062-10.874a3.616 3.616 0 000-4.645z"
      ></path>
    </svg>