<svg
      xmlns="http://www.w3.org/2000/svg"
      width="42"
      height="80"
      fill="none"
      viewBox="0 0 42 42"
    >
      <path
        fill="#09002A"
        d="M22.929 18.88a2.828 2.828 0 11-4 4 2.828 2.828 0 014-4zM18.809 11a2.998 2.998 0 014.24 0 2.998 2.998 0 004.24 0l.759-.76a3 3 0 000-4.242L23.05 1.001a3 3 0 00-4.242 0L13.81 5.998a3 3 0 000 4.243l.759.758a2.998 2.998 0 004.24 0zm-7.76 12a2.998 2.998 0 010-4.24 2.998 2.998 0 000-4.24l-.759-.76a3 3 0 00-4.242 0L1.05 18.759a3 3 0 000 4.243l4.998 4.997a3 3 0 004.242 0l.759-.759a2.998 2.998 0 000-4.24zm19.76-4.24a2.998 2.998 0 010 4.24 2.998 2.998 0 000 4.24l.759.758a3 3 0 004.242 0l4.998-4.997a3 3 0 000-4.243l-4.998-4.997a3 3 0 00-4.242 0l-.759.759a2.998 2.998 0 000 4.24zm-7.76 12a2.998 2.998 0 01-4.24 0 2.998 2.998 0 00-4.24 0l-.759.758a3 3 0 000 4.243l4.998 4.997a3 3 0 004.242 0l4.998-4.997a3 3 0 000-4.243l-.759-.759a2.998 2.998 0 00-4.24 0z"
      ></path>
    </svg>